<svg width="24" height="24" viewBox="0 0 24 24" fill="none" xmlns="http://www.w3.org/2000/svg">
<path d="M13.4111 14.912H11.4591V14.544C11.4698 14 11.5925 13.52 11.8271 13.104C12.0618 12.688 12.4618 12.2507 13.0271 11.792C13.4858 11.4187 13.7845 11.1253 13.9231 10.912C14.0618 10.688 14.1311 10.3947 14.1311 10.032C14.1311 9.52 13.9711 9.09333 13.6511 8.752C13.3418 8.4 12.9525 8.224 12.4831 8.224C11.9818 8.224 11.5658 8.42133 11.2351 8.816C10.9151 9.2 10.7551 9.696 10.7551 10.304V10.512H8.61113C8.63246 9.31733 8.87779 8.40533 9.34713 7.776C10.0405 6.83733 11.0698 6.368 12.4351 6.368C13.6831 6.368 14.6698 6.74667 15.3951 7.504C16.0245 8.16533 16.3391 9.00267 16.3391 10.016C16.3391 10.6667 16.2058 11.2053 15.9391 11.632C15.6831 12.048 15.1871 12.5173 14.4511 13.04C13.9605 13.3813 13.6618 13.648 13.5551 13.84C13.4591 14.0213 13.4111 14.3787 13.4111 14.912ZM12.4671 16.016C12.7658 16.016 13.0111 16.1173 13.2031 16.32C13.4058 16.512 13.5071 16.752 13.5071 17.04C13.5071 17.328 13.4058 17.5733 13.2031 17.776C13.0005 17.9787 12.7551 18.08 12.4671 18.08C12.1898 18.08 11.9498 17.9787 11.7471 17.776C11.5445 17.5733 11.4431 17.328 11.4431 17.04C11.4431 16.752 11.5445 16.512 11.7471 16.32C11.9498 16.1173 12.1898 16.016 12.4671 16.016Z" fill="#808080"/>
<circle cx="12" cy="12" r="11" stroke="#808080" stroke-width="2"/>
</svg>
